<svg xmlns="http://www.w3.org/2000/svg" width="330" height="105" viewBox="0 0 330 105" fill="none"><path d="M0 103.431V87.2572L23.5812 16.0379H3.39787V1.15527H39.823V16.0379L15.902 88.5484H39.823V103.431H0Z" fill="white"></path><path d="M60.9441 83.6555V82.4322V22.1541C60.9441 21.837 60.9441 21.4292 60.9441 20.9309C60.9894 20.3872 61.1254 19.3452 61.3519 17.8048C61.6237 16.2645 61.9861 14.792 62.4392 13.3876C62.8922 11.9831 63.6171 10.4428 64.6138 8.7665C65.6105 7.04491 66.7658 5.5725 68.0797 4.34927C69.4388 3.12604 71.2283 2.10668 73.4483 1.29119C75.6682 0.430396 78.16 0 80.9236 0C83.6872 0 86.179 0.407744 88.3989 1.22323C90.6188 2.03872 92.3857 3.10338 93.6996 4.41723C95.0587 5.68576 96.2366 7.11287 97.2334 8.69854C98.2754 10.2842 99.0229 11.8699 99.4759 13.4556C99.929 15.0412 100.269 16.491 100.495 17.8048C100.767 19.0734 100.903 20.1154 100.903 20.9309L100.971 22.1541V82.4322C100.971 82.7494 100.948 83.1798 100.903 83.7234C100.903 84.2218 100.767 85.2411 100.495 86.7815C100.269 88.3219 99.929 89.7943 99.4759 91.1987C99.0229 92.5579 98.298 94.0983 97.3013 95.8198C96.3046 97.4961 95.1267 98.9459 93.7675 100.169C92.4084 101.392 90.6188 102.434 88.3989 103.295C86.179 104.111 83.6872 104.518 80.9236 104.518C78.16 104.518 75.6682 104.111 73.4483 103.295C71.2283 102.48 69.4388 101.438 68.0797 100.169C66.7658 98.8553 65.6105 97.4055 64.6138 95.8198C63.6171 94.2342 62.8922 92.6712 62.4392 91.1308C61.9861 89.5451 61.6237 88.118 61.3519 86.8495C61.1254 85.5356 60.9894 84.471 60.9441 83.6555ZM75.9627 82.4322C75.9627 82.6135 75.9627 82.8853 75.9627 83.2477C75.9627 83.5649 76.0307 84.1538 76.1666 85.0146C76.3478 85.8754 76.5743 86.6456 76.8462 87.3252C77.1633 87.9594 77.6616 88.5484 78.3412 89.0921C79.0661 89.6357 79.9269 89.9075 80.9236 89.9075C81.9203 89.9075 82.7584 89.6584 83.438 89.16C84.1629 88.6164 84.6839 87.9821 85.001 87.2572C85.3182 86.5323 85.5447 85.8075 85.6806 85.0826C85.8618 84.3577 85.9524 83.7234 85.9524 83.1798V82.4322V22.1541C85.9524 21.9276 85.9524 21.6557 85.9524 21.3386C85.9524 21.0215 85.8618 20.4325 85.6806 19.5717C85.5447 18.6656 85.3182 17.8954 85.001 17.2612C84.6839 16.5816 84.1629 15.97 83.438 15.4263C82.7584 14.8827 81.9203 14.6108 80.9236 14.6108C79.3379 14.6108 78.1373 15.2451 77.3219 16.5136C76.5064 17.7369 76.076 18.9827 76.0307 20.2513L75.9627 22.1541V82.4322Z" fill="white"></path><path d="M125.014 103.431V1.15527H140.033V35.2019V39.6871H140.577L141.324 35.2019L153.828 1.15527H168.439L154.644 34.7942L170.274 103.431H155.595L145.198 58.919L144.79 56.8123H144.382L143.499 58.919L140.033 67.2778V103.431H125.014Z" fill="white"></path><path d="M188.541 1.15527H203.288L210.831 33.8428L211.239 37.5804H211.51L211.918 33.8428L219.461 1.15527H234.208L218.918 59.8704V103.431H203.899V59.8704L188.541 1.15527Z" fill="white"></path><path d="M253.291 83.6555V82.4322V22.1541C253.291 21.837 253.291 21.4292 253.291 20.9309C253.336 20.3872 253.472 19.3452 253.698 17.8048C253.97 16.2645 254.333 14.792 254.786 13.3876C255.239 11.9831 255.964 10.4428 256.96 8.7665C257.957 7.04491 259.112 5.5725 260.426 4.34927C261.785 3.12604 263.575 2.10668 265.795 1.29119C268.015 0.430396 270.506 0 273.27 0C276.034 0 278.525 0.407744 280.745 1.22323C282.965 2.03872 284.732 3.10338 286.046 4.41723C287.405 5.68576 288.583 7.11287 289.58 8.69854C290.622 10.2842 291.369 11.8699 291.822 13.4556C292.275 15.0412 292.615 16.491 292.842 17.8048C293.114 19.0734 293.249 20.1154 293.249 20.9309L293.317 22.1541V82.4322C293.317 82.7494 293.295 83.1798 293.249 83.7234C293.249 84.2218 293.114 85.2411 292.842 86.7815C292.615 88.3219 292.275 89.7943 291.822 91.1987C291.369 92.5579 290.644 94.0983 289.648 95.8198C288.651 97.4961 287.473 98.9459 286.114 100.169C284.755 101.392 282.965 102.434 280.745 103.295C278.525 104.111 276.034 104.518 273.27 104.518C270.506 104.518 268.015 104.111 265.795 103.295C263.575 102.48 261.785 101.438 260.426 100.169C259.112 98.8553 257.957 97.4055 256.96 95.8198C255.964 94.2342 255.239 92.6712 254.786 91.1308C254.333 89.5451 253.97 88.118 253.698 86.8495C253.472 85.5356 253.336 84.471 253.291 83.6555ZM268.309 82.4322C268.309 82.6135 268.309 82.8853 268.309 83.2477C268.309 83.5649 268.377 84.1538 268.513 85.0146C268.694 85.8754 268.921 86.6456 269.193 87.3252C269.51 87.9594 270.008 88.5484 270.688 89.0921C271.413 89.6357 272.273 89.9075 273.27 89.9075C274.267 89.9075 275.105 89.6584 275.784 89.16C276.509 88.6164 277.03 87.9821 277.347 87.2572C277.665 86.5323 277.891 85.8075 278.027 85.0826C278.208 84.3577 278.299 83.7234 278.299 83.1798V82.4322V22.1541C278.299 21.9276 278.299 21.6557 278.299 21.3386C278.299 21.0215 278.208 20.4325 278.027 19.5717C277.891 18.6656 277.665 17.8954 277.347 17.2612C277.03 16.5816 276.509 15.97 275.784 15.4263C275.105 14.8827 274.267 14.6108 273.27 14.6108C271.684 14.6108 270.484 15.2451 269.668 16.5136C268.853 17.7369 268.422 18.9827 268.377 20.2513L268.309 22.1541V82.4322Z" fill="white"></path><path d="M315.389 103.431V88.0049H330V103.431H315.389Z" fill="#3FAFED"></path></svg>