<svg width="169" height="37" viewBox="0 0 169 37" fill="none" xmlns="http://www.w3.org/2000/svg">
<g clip-path="url(#clip0)">
<path d="M65.7958 11.7859C66.8275 12.4104 67.7006 13.269 68.2562 14.4399C68.8911 15.6108 69.2086 17.0158 69.2086 18.577C69.2086 20.1381 68.8911 21.4651 68.1768 22.636C67.5419 23.8069 66.5894 24.6655 65.3989 25.2119C64.2084 25.8364 62.7798 26.1486 61.2718 26.1486C60.3988 26.1486 59.6051 25.9925 58.8114 25.6803C58.0177 25.4461 57.3034 24.9778 56.7479 24.4313V32.5494H52.1445V11.1614H56.1129L56.5097 12.8787C58.2558 11.4737 60.1607 10.7711 62.1449 10.7711C63.4941 10.7711 64.764 11.0834 65.7958 11.7859ZM63.256 21.4651C64.0497 20.7626 64.4465 19.8259 64.4465 18.655C64.4465 17.4842 64.0497 16.5475 63.3354 15.7669C62.6211 14.9863 61.6686 14.6741 60.6369 14.6741C59.7638 14.6741 58.9701 14.8302 58.3352 15.2205C57.7003 15.5327 57.2241 16.0791 56.8272 16.7816V20.2943C57.0653 20.9968 57.5415 21.5432 58.0971 21.9335C58.732 22.3238 59.4464 22.5579 60.3194 22.5579C61.5099 22.5579 62.4623 22.1677 63.256 21.4651Z" fill="white"/>
<path d="M71.907 14.5162C72.6213 13.4234 73.5737 12.4867 74.8436 11.8622C76.1135 11.2378 77.5421 10.8475 79.1295 10.8475C80.7168 10.8475 82.1454 11.1597 83.4153 11.8622C84.6058 12.4867 85.5583 13.4234 86.2726 14.5943C86.9869 15.7651 87.3043 17.0141 87.3043 18.4972C87.3043 19.9803 86.9869 21.2292 86.2726 22.4001C85.5583 23.571 84.6852 24.5077 83.4153 25.1321C82.2248 25.7566 80.7168 26.1469 79.1295 26.1469C77.5421 26.1469 76.1135 25.8347 74.8436 25.2102C73.5737 24.5857 72.6213 23.7271 71.907 22.5562C71.2721 21.3853 70.8752 20.0583 70.8752 18.4972C70.8752 17.0141 71.2721 15.6871 71.907 14.5162ZM76.5897 21.3073C77.2246 22.0879 78.0977 22.4001 79.1295 22.4001C80.1613 22.4001 81.0343 22.0098 81.6692 21.3073C82.3042 20.6047 82.6217 19.59 82.6217 18.4972C82.6217 17.3263 82.3042 16.3896 81.6692 15.6871C80.9549 14.9065 80.1613 14.5162 79.0501 14.5162C78.0183 14.5162 77.2247 14.9065 76.5103 15.609C75.8754 16.3896 75.5579 17.3263 75.5579 18.4972C75.5579 19.59 75.8754 20.5267 76.5897 21.3073Z" fill="white"/>
<path d="M94.765 0.0762939V25.7574H90.1616V0.0762939H94.765Z" fill="white"/>
<path d="M113.654 11.5506L104.289 32.6263H99.8444L103.337 25.0547L96.6697 11.5506H101.908L105.718 19.9809L109.527 11.5506H113.654Z" fill="white"/>
<path d="M131.274 11.55V25.7566C131.274 27.0836 130.877 28.3325 130.084 29.4253C129.29 30.5182 128.258 31.3768 126.909 32.0013C125.56 32.6257 124.131 32.938 122.544 32.938C121.353 32.938 120.321 32.7818 119.448 32.5477C118.575 32.2354 117.861 31.9232 117.305 31.611C116.67 31.2207 116.036 30.7523 115.321 30.1279L118.02 27.0055C118.655 27.63 119.369 28.0983 120.004 28.4106C120.639 28.7228 121.512 28.957 122.464 28.957C123.655 28.957 124.607 28.6448 125.401 28.0983C126.195 27.5519 126.591 26.6933 126.591 25.6785V23.649C126.115 24.3516 125.48 24.976 124.528 25.4444C123.575 25.9127 122.464 26.1469 121.194 26.1469C119.925 26.1469 118.655 25.8347 117.544 25.1321C116.432 24.5077 115.559 23.571 114.845 22.4001C114.21 21.2292 113.813 19.9803 113.813 18.5752C113.813 17.1702 114.131 15.8432 114.845 14.6723C115.559 13.5015 116.432 12.5648 117.623 11.8622C118.734 11.1597 119.925 10.8475 121.194 10.8475C122.385 10.8475 123.417 11.0036 124.369 11.3158C125.322 11.6281 126.036 12.0964 126.512 12.6428L126.988 11.55H131.274ZM126.591 20.2925V16.7799C126.274 16.0774 125.798 15.531 125.083 15.1407C124.369 14.7504 123.575 14.5162 122.623 14.5162C121.512 14.5162 120.559 14.9065 119.766 15.609C118.972 16.3116 118.575 17.2482 118.575 18.4191C118.575 19.5119 118.972 20.5267 119.766 21.3073C120.559 22.0879 121.512 22.4782 122.623 22.4782C124.448 22.4001 125.798 21.6976 126.591 20.2925Z" fill="white"/>
<path d="M135.084 14.5179C135.798 13.3471 136.751 12.4884 138.02 11.7859C139.29 11.1614 140.719 10.7711 142.306 10.7711C143.894 10.7711 145.322 11.0834 146.592 11.7859C147.783 12.4104 148.735 13.3471 149.449 14.5179C150.084 15.6888 150.481 16.9377 150.481 18.4209C150.481 19.904 150.164 21.1529 149.449 22.3238C148.814 23.4946 147.862 24.4313 146.592 25.0558C145.402 25.6803 143.894 26.0706 142.306 26.0706C140.719 26.0706 139.29 25.7583 138.02 25.1339C136.751 24.5094 135.798 23.6508 135.084 22.4799C134.369 21.309 134.052 19.982 134.052 18.3428C134.052 17.0158 134.369 15.6888 135.084 14.5179ZM139.687 21.309C140.322 22.0896 141.195 22.4018 142.227 22.4018C143.259 22.4018 144.132 22.0115 144.767 21.309C145.402 20.6065 145.719 19.5917 145.719 18.4989C145.719 17.328 145.402 16.3913 144.767 15.6888C144.132 14.9863 143.259 14.596 142.227 14.596C141.195 14.596 140.401 14.9863 139.687 15.6888C138.973 16.3913 138.655 17.4061 138.655 18.4989C138.735 19.5917 139.052 20.5284 139.687 21.309Z" fill="white"/>
<path d="M166.751 12.0183C167.704 12.7989 168.101 13.8137 168.18 15.0626V25.7566H163.497V16.7799C163.418 15.3749 162.704 14.6723 161.355 14.6723C160.323 14.6723 159.45 15.1407 158.815 16.1554C158.18 17.1702 157.862 18.4191 157.862 19.9022V25.7566H153.259V11.55H157.466L157.783 13.8137C158.339 12.877 159.053 12.1745 160.005 11.6281C160.958 11.0816 162.069 10.8475 163.339 10.8475C164.688 10.8475 165.878 11.2378 166.751 12.0183Z" fill="white"/>
<path d="M32.4614 11.3176C31.6677 10.8492 30.6359 10.8492 29.7629 11.3176L23.5722 14.9082L19.3657 17.25L13.175 20.8407C12.3813 21.309 11.3496 21.309 10.4765 20.8407L5.55573 18.0306C4.76206 17.5622 4.20648 16.7036 4.20648 15.7669V10.2247C4.20648 9.28805 4.68269 8.42941 5.55573 7.96106L10.3972 5.22902C11.1908 4.76067 12.2226 4.76067 13.0957 5.22902L17.9371 7.96106C18.7308 8.42941 19.2863 9.28805 19.2863 10.2247V13.8154L23.4928 11.3956V7.80494C23.4928 6.86824 23.0166 6.0096 22.1436 5.54125L13.175 0.389409C12.3813 -0.0789404 11.3496 -0.0789404 10.4765 0.389409L1.34925 5.54125C0.476206 6.0096 0 6.86824 0 7.80494V18.1867C0 19.1234 0.476206 19.982 1.34925 20.4504L10.4765 25.6022C11.2702 26.0706 12.302 26.0706 13.175 25.6022L19.3657 22.0896L23.5722 19.6698L29.7629 16.1572C30.5565 15.6888 31.5883 15.6888 32.4614 16.1572L37.3028 18.8892C38.0965 19.3576 38.652 20.2162 38.652 21.1529V26.695C38.652 27.6317 38.1758 28.4904 37.3028 28.9587L32.4614 31.7688C31.6677 32.2372 30.6359 32.2372 29.7629 31.7688L24.9214 29.0368C24.1278 28.5684 23.5722 27.7098 23.5722 26.7731V23.1824L19.3657 25.6022V29.1929C19.3657 30.1296 19.8419 30.9882 20.7149 31.4566L29.8422 36.6084C30.6359 37.0768 31.6677 37.0768 32.5407 36.6084L41.668 31.4566C42.4617 30.9882 43.0173 30.1296 43.0173 29.1929V18.8112C43.0173 17.8745 42.541 17.0158 41.668 16.5475L32.4614 11.3176Z" fill="#8247E5"/>
</g>
<defs>
<clipPath id="clip0">
<rect width="168.18" height="36.9996" fill="white"/>
</clipPath>
</defs>
</svg>
